<!DOCTYPE svg PUBLIC "-//W3C//DTD SVG 1.1//EN" "http://www.w3.org/Graphics/SVG/1.1/DTD/svg11.dtd">
<!-- Uploaded to: SVG Repo, www.svgrepo.com, Transformed by: SVG Repo Mixer Tools -->
<svg fill="#000000" version="1.1" id="Capa_1" xmlns="http://www.w3.org/2000/svg" xmlns:xlink="http://www.w3.org/1999/xlink" width="149px" height="149px" viewBox="0 0 196.02 196.02" xml:space="preserve" stroke="#000000" stroke-width="0.0019602">
<g id="SVGRepo_bgCarrier" stroke-width="0"/>
<g id="SVGRepo_tracerCarrier" stroke-linecap="round" stroke-linejoin="round"/>
<g id="SVGRepo_iconCarrier"> <g> <g> <ellipse cx="99.531" cy="16.385" rx="16.604" ry="16.385"/> <path d="M135.199,61.631c0-20.834-13.176-26.404-20.141-26.404c-0.01,0-33.423-0.012-33.427-0.012 c-0.945,0-2.133,0.287-2.961,0.759c-27.463,15.659-15.196,64.512-14.662,66.584c0.69,2.67,3.096,4.438,5.729,4.438 c0.49,0,0.99-0.062,1.485-0.19c3.167-0.817,5.069-4.049,4.253-7.214c-0.099-0.379-8.389-34.432,4.148-49.238v136.784 c0,4.905,3.978,8.881,8.881,8.881c4.906,0,8.881-3.976,8.881-8.881v-67.111h4.255v67.111c0,4.905,3.976,8.881,8.882,8.881 c4.904,0,8.88-3.976,8.88-8.881V91.814c-5,2.502-10.668,3.866-16.31,3.866c-4.923,0-8.932-4.007-8.932-8.933 c0-4.925,4.011-8.932,8.934-8.932c6.731,0,13.695-3.679,16.308-10.598V48.995c2.015,1.87,3.964,5.513,3.964,12.613 c0,8.635-5.005,14.519-11.338,17.326c1.536,0.487,2.652,1.925,2.652,3.623c0,0.847-0.278,1.628-0.747,2.261 c0.628,1.453,0.915,3.438,0.104,5.994C125.616,86.815,135.199,76.526,135.199,61.631z"/> <path d="M112.304,86.079c-0.439,0.179-0.921,0.277-1.425,0.277c-2.098,0-3.798-1.701-3.798-3.799c0-0.842,0.272-1.618,0.734-2.248 c-1.561,0.343-3.151,0.519-4.729,0.519c-3.27,0-5.919,2.65-5.919,5.92c0,3.269,2.649,5.92,5.919,5.92 c2.891,0,5.799-0.389,8.622-1.144l-0.053-0.024C112.723,89.145,112.703,87.364,112.304,86.079z"/> </g> </g> </g>
</svg>