<!DOCTYPE svg PUBLIC "-//W3C//DTD SVG 1.1//EN" "http://www.w3.org/Graphics/SVG/1.1/DTD/svg11.dtd">
<!-- Uploaded to: SVG Repo, www.svgrepo.com, Transformed by: SVG Repo Mixer Tools -->
<svg fill="#c8a050" height="256px" width="256px" version="1.1" id="Capa_1" xmlns="http://www.w3.org/2000/svg" xmlns:xlink="http://www.w3.org/1999/xlink" viewBox="0 0 60 60" xml:space="preserve" stroke="#c8a050" stroke-width="0.0006000000000000001">
<g id="SVGRepo_bgCarrier" stroke-width="0"/>
<g id="SVGRepo_tracerCarrier" stroke-linecap="round" stroke-linejoin="round"/>
<g id="SVGRepo_iconCarrier"> <g> <path d="M5.293,56.707C5.48,56.895,5.734,57,6,57h2c0.266,0,0.52-0.105,0.707-0.293l1-1C9.895,55.52,10,55.265,10,55v-2 c0-0.265-0.105-0.52-0.293-0.707l-1-1C8.52,51.105,8.266,51,8,51H6c-0.266,0-0.52,0.105-0.707,0.293l-1,1 C4.105,52.48,4,52.735,4,53v2c0,0.265,0.105,0.52,0.293,0.707L5.293,56.707z M6,53.414L6.414,53h1.172L8,53.414v1.172L7.586,55 H6.414L6,54.586V53.414z"/> <path d="M12.293,56.707C12.48,56.895,12.734,57,13,57h2c0.266,0,0.52-0.105,0.707-0.293l1-1C16.895,55.52,17,55.265,17,55v-2 c0-0.265-0.105-0.52-0.293-0.707l-1-1C15.52,51.105,15.266,51,15,51h-2c-0.266,0-0.52,0.105-0.707,0.293l-1,1 C11.105,52.48,11,52.735,11,53v2c0,0.265,0.105,0.52,0.293,0.707L12.293,56.707z M13,53.414L13.414,53h1.172L15,53.414v1.172 L14.586,55h-1.172L13,54.586V53.414z"/> <path d="M19.293,56.707C19.48,56.895,19.734,57,20,57h2c0.266,0,0.52-0.105,0.707-0.293l1-1C23.895,55.52,24,55.265,24,55v-2 c0-0.265-0.105-0.52-0.293-0.707l-1-1C22.52,51.105,22.266,51,22,51h-2c-0.266,0-0.52,0.105-0.707,0.293l-1,1 C18.105,52.48,18,52.735,18,53v2c0,0.265,0.105,0.52,0.293,0.707L19.293,56.707z M20,53.414L20.414,53h1.172L22,53.414v1.172 L21.586,55h-1.172L20,54.586V53.414z"/> <path d="M26.293,56.707C26.48,56.895,26.734,57,27,57h2c0.266,0,0.52-0.105,0.707-0.293l1-1C30.895,55.52,31,55.265,31,55v-2 c0-0.265-0.105-0.52-0.293-0.707l-1-1C29.52,51.105,29.266,51,29,51h-2c-0.266,0-0.52,0.105-0.707,0.293l-1,1 C25.105,52.48,25,52.735,25,53v2c0,0.265,0.105,0.52,0.293,0.707L26.293,56.707z M27,53.414L27.414,53h1.172L29,53.414v1.172 L28.586,55h-1.172L27,54.586V53.414z"/> <path d="M53,35c0-0.552-0.447-1-1-1s-1,0.448-1,1v2h-3v5h3v4c0,0.552,0.447,1,1,1s1-0.448,1-1v-4h3v-5h-3V35z M54,40h-4v-1h4V40z"/> <path d="M52,4c-2.206,0-4,1.794-4,4c0,1.858,1.279,3.411,3,3.858v13.728l-5.328,5.328l-0.422-0.422C45.738,28.695,46,26.854,46,25 c0-11.58-9.421-21-21-21S4,13.42,4,25s9.421,21,21,21c6.115,0,11.816-2.616,15.816-7.214l1.32,1.32l6.364-6.364l-1.414-1.414 L53,26.414V11.858c1.721-0.447,3-2,3-3.858C56,5.794,54.206,4,52,4z M25,44C14.523,44,6,35.477,6,25S14.523,6,25,6s19,8.523,19,19 c0,1.896-0.286,3.782-0.851,5.608l-5.256,5.256l1.506,1.506C35.775,41.595,30.576,44,25,44z M42.136,37.278l-1.414-1.415 l3.536-3.536l0.707,0.707c0,0,0,0,0,0.001c0,0,0,0,0.001,0l0.706,0.707L42.136,37.278z M53,9.722V8c0-0.552-0.447-1-1-1 s-1,0.448-1,1v1.722C50.405,9.375,50,8.737,50,8c0-1.103,0.897-2,2-2s2,0.897,2,2C54,8.737,53.595,9.375,53,9.722z"/> <path d="M25,15c-5.514,0-10,4.486-10,10s4.486,10,10,10s10-4.486,10-10S30.514,15,25,15z M25,33c-4.411,0-8-3.589-8-8s3.589-8,8-8 s8,3.589,8,8S29.411,33,25,33z"/> <path d="M25,20c-2.757,0-5,2.243-5,5s2.243,5,5,5s5-2.243,5-5S27.757,20,25,20z M25,28c-1.654,0-3-1.346-3-3s1.346-3,3-3 s3,1.346,3,3S26.654,28,25,28z"/> <path d="M55.497,0H4.503C2.02,0,0,2.02,0,4.503V48v2v5.497C0,57.98,2.02,60,4.503,60h50.994C57.98,60,60,57.98,60,55.497V50v-2 V4.503C60,2.02,57.98,0,55.497,0z M58,55.497C58,56.877,56.877,58,55.497,58H4.503C3.123,58,2,56.877,2,55.497V50h56V55.497z M2,48 V4.503C2,3.123,3.123,2,4.503,2h50.994C56.877,2,58,3.123,58,4.503V48H2z"/> </g> </g>
</svg>