<!DOCTYPE svg PUBLIC "-//W3C//DTD SVG 1.1//EN" "http://www.w3.org/Graphics/SVG/1.1/DTD/svg11.dtd">
<!-- Uploaded to: SVG Repo, www.svgrepo.com, Transformed by: SVG Repo Mixer Tools -->
<svg fill="#531f8f" height="100px" width="100px" version="1.1" id="Layer_1" xmlns="http://www.w3.org/2000/svg" xmlns:xlink="http://www.w3.org/1999/xlink" viewBox="0 0 390.669 390.669" xml:space="preserve" stroke="#531f8f">
<g id="SVGRepo_bgCarrier" stroke-width="0"/>
<g id="SVGRepo_tracerCarrier" stroke-linecap="round" stroke-linejoin="round"/>
<g id="SVGRepo_iconCarrier"> <g> <g> <g> <path d="M146.95,204.298h-7c-4.971,0-9,4.029-9,9c0,4.971,4.029,9,9,9h7c4.971,0,9-4.029,9-9 C155.95,208.327,151.921,204.298,146.95,204.298z"/> <path d="M77.035,146.07c-4.971,0-9,4.029-9,9v8.48c0,4.971,4.029,9,9,9s9-4.029,9-9v-8.48 C86.035,150.099,82.006,146.07,77.035,146.07z"/> <path d="M33.537,109.036c3.113,0,5.855-1.58,7.472-3.982c0.965-1.434,1.528-3.16,1.528-5.018c0-7.03,5.719-12.749,12.749-12.749 c7.03,0,12.749,5.719,12.749,12.749v23.169v6.044c0,4.971,4.029,9,9,9s9-4.029,9-9v-29.213c0-7.03,5.719-12.749,12.749-12.749 c7.03,0,12.749,5.719,12.749,12.749c0,4.971,4.029,9,9,9s9-4.029,9-9c0-16.955-13.794-30.749-30.749-30.749 c-8.486,0-16.18,3.456-21.749,9.034c-5.569-5.578-13.263-9.034-21.749-9.034c-16.955,0-30.749,13.794-30.749,30.749 C24.537,105.006,28.566,109.036,33.537,109.036z"/> <path d="M390.382,116.586c-0.342-3.203-2.369-5.979-5.316-7.279c-16.605-7.325-36.016-5.233-50.656,5.461 c-2.917,2.131-5.594,4.568-7.986,7.258c-2.393-2.689-5.069-5.126-7.986-7.257c-14.642-10.695-34.052-12.787-50.656-5.461 c-2.946,1.3-4.974,4.076-5.316,7.278c-1.928,18.046,5.97,35.9,20.611,46.595c6.04,4.412,12.906,7.37,20.068,8.795l-2.815,4.383 c-2.976,4.633-8.037,7.399-13.539,7.399H85.889c-0.745-4.219-4.421-7.427-8.854-7.427c-4.433,0-8.109,3.208-8.854,7.427h-40.66 c-10.144,0-19.433,5.557-24.242,14.501c-4.785,8.898-4.305,19.648,1.252,28.057c34.879,52.773,93.42,84.279,156.597,84.279 c8.546,0,17.036-0.585,25.418-1.73c1.055,0.852,2.141,1.673,3.264,2.453c9.597,6.664,20.897,10.064,32.259,10.063 c8.188,0,16.407-1.768,24.034-5.353c4.053-1.905,6.089-6.5,4.777-10.781l-4.619-15.078c13.515-6.882,26.238-15.423,37.847-25.511 c28.052-24.376,48.12-56.391,57.874-91.768c9.902-0.439,19.604-3.73,27.79-9.71C384.411,152.486,392.309,134.632,390.382,116.586 z M161.127,292.595c-45.326,0-88-17.955-119.453-49.208h10.294c33.078,29.575,74.757,46.862,117.948,48.969 C167.001,292.509,164.072,292.595,161.127,292.595z M80.923,243.387h12.134c0.051,0.034,0.097,0.073,0.15,0.106 c22.46,14.181,46.877,23.332,72.646,27.24c0.118,1.126,0.271,2.246,0.456,3.359C135.867,271.782,106.384,261.133,80.923,243.387z M240.828,272.439l-0.048-0.156c-1.456-4.752-6.485-7.423-11.242-5.969c-3.147,0.964-5.373,3.501-6.101,6.483 c-0.371,1.52-0.36,3.154,0.132,4.758l7.582,24.75c-10.589,2.564-21.965,0.555-31.076-5.772 c-10.862-7.542-17.076-20.242-16.478-33.412c0.021-0.473,0.031-0.946,0.07-1.42c0.409-4.954-3.274-9.301-8.228-9.711 c-1.896-0.158-3.703,0.291-5.236,1.177c-12.884-1.827-25.406-5.091-37.471-9.779h17.985c4.971,0,9-4.029,9-9s-4.029-9-9-9H25.923 c-2.21-2.918-4.339-5.915-6.375-8.996c-2.778-4.203-1.217-8.119-0.417-9.607c1.692-3.147,4.829-5.026,8.39-5.026h259.268 c11.658,0,22.382-5.858,28.684-15.671l7.053-10.979C308.846,217.229,278.981,251.932,240.828,272.439z M359.153,148.645 c-8.583,6.27-19.754,7.999-29.885,4.622c-1.848-0.616-3.844-0.616-5.691,0c-10.129,3.375-21.302,1.648-29.885-4.622 c-7.979-5.828-12.861-14.946-13.455-24.658c9.434-2.388,19.604-0.511,27.582,5.316c4.488,3.279,8.098,7.682,10.437,12.733 c1.474,3.182,4.66,5.219,8.167,5.219c3.507,0,6.693-2.037,8.167-5.219c2.34-5.052,5.948-9.455,10.437-12.733 c7.979-5.827,18.148-7.705,27.581-5.316C372.014,133.7,367.132,142.817,359.153,148.645z"/> </g> </g> </g> </g>
</svg>